<svg width="48" height="48" viewBox="0 0 48 48" fill="none" xmlns="http://www.w3.org/2000/svg">
<g clip-path="url(#clip0_44_2)">
<path d="M38.22 45.22C34.1 46.3 30.32 46.84 26.88 46.84C23.4 46.84 20.2 46.32 17.28 45.28C14.4 44.2 11.88 42.7 9.72 40.78C7.6 38.82 5.94 36.52 4.74 33.88C3.58 31.2 3 28.24 3 25C3 21.84 3.58 18.92 4.74 16.24C5.94 13.52 7.58 11.16 9.66 9.16C11.78 7.12 14.22 5.54 16.98 4.42C19.74 3.3 22.7 2.74 25.86 2.74C28.62 2.74 31.16 2.98 33.48 3.46C35.84 3.9 37.72 4.32 39.12 4.72L40.32 13.24L38.52 13.6C37.44 10.76 35.7 8.72 33.3 7.48C30.94 6.24 28.34 5.62 25.5 5.62C22.1 5.62 19.14 6.38 16.62 7.9C14.1 9.42 12.14 11.5 10.74 14.14C9.38 16.78 8.7 19.8 8.7 23.2C8.7 25.96 9.18 28.58 10.14 31.06C11.1 33.54 12.42 35.76 14.1 37.72C15.82 39.68 17.78 41.22 19.98 42.34C22.22 43.46 24.6 44.02 27.12 44.02C30.44 44.02 33.16 43.3 35.28 41.86C37.4 40.38 39.34 38.24 41.1 35.44L42.9 36.34L38.22 45.22Z" fill="#00AFB9"/>
<rect x="26.957" y="7" width="4" height="4" transform="rotate(47.6585 26.957 7)" fill="white"/>
<path d="M36.76 16.12V18.96H32.64V41H29.4V34.08C28 35.04 26.28 35.72 23.8 35.72C18.64 35.72 15.72 32.76 14.32 26.68C18.44 25.92 20.12 24.8 20.12 22.64C20.12 21.24 19.44 19.96 18.36 18.96H13V16.12H36.76ZM18.32 28.72C19.28 31.48 20.8 32.88 23.76 32.88C26.24 32.88 28.04 31.6 29.4 30.12V18.96H21.84C22.84 20.24 23.32 21.64 23.32 23C23.32 25.84 21.76 27.6 18.32 28.72Z" fill="white"/>
</g>
<defs>
<clipPath id="clip0_44_2">
<rect width="48" height="48" fill="white"/>
</clipPath>
</defs>
</svg>