<svg width="400" height="75" viewBox="0 0 400 75" fill="none" xmlns="http://www.w3.org/2000/svg">
<g clip-path="url(#clip0_26_7)">
<path d="M57.33 67.83C51.15 69.45 45.48 70.26 40.32 70.26C35.1 70.26 30.3 69.48 25.92 67.92C21.6 66.3 17.82 64.05 14.58 61.17C11.4 58.23 8.91 54.78 7.11 50.82C5.37 46.8 4.5 42.36 4.5 37.5C4.5 32.76 5.37 28.38 7.11 24.36C8.91 20.28 11.37 16.74 14.49 13.74C17.67 10.68 21.33 8.31 25.47 6.63C29.61 4.95 34.05 4.11 38.79 4.11C42.93 4.11 46.74 4.47 50.22 5.19C53.76 5.85 56.58 6.48 58.68 7.08L60.48 19.86L57.78 20.4C56.16 16.14 53.55 13.08 49.95 11.22C46.41 9.36 42.51 8.43 38.25 8.43C33.15 8.43 28.71 9.57 24.93 11.85C21.15 14.13 18.21 17.25 16.11 21.21C14.07 25.17 13.05 29.7 13.05 34.8C13.05 38.94 13.77 42.87 15.21 46.59C16.65 50.31 18.63 53.64 21.15 56.58C23.73 59.52 26.67 61.83 29.97 63.51C33.33 65.19 36.9 66.03 40.68 66.03C45.66 66.03 49.74 64.95 52.92 62.79C56.1 60.57 59.01 57.36 61.65 53.16L64.35 54.51L57.33 67.83Z" fill="#00AFB9"/>
<path d="M58.64 24.68V28.94H52.46V62H47.6V51.62C45.5 53.06 42.92 54.08 39.2 54.08C31.46 54.08 27.08 49.64 24.98 40.52C31.16 39.38 33.68 37.7 33.68 34.46C33.68 32.36 32.66 30.44 31.04 28.94H23V24.68H58.64ZM30.98 43.58C32.42 47.72 34.7 49.82 39.14 49.82C42.86 49.82 45.56 47.9 47.6 45.68V28.94H36.26C37.76 30.86 38.48 32.96 38.48 35C38.48 39.26 36.14 41.9 30.98 43.58Z" fill="white"/>
<path d="M106.48 65.48C103.733 66.2 101.213 66.56 98.92 66.56C96.6 66.56 94.4667 66.2133 92.52 65.52C90.6 64.8 88.92 63.8 87.48 62.52C86.0667 61.2133 84.96 59.68 84.16 57.92C83.3867 56.1333 83 54.16 83 52C83 49.8933 83.3867 47.9467 84.16 46.16C84.96 44.3467 86.0533 42.7733 87.44 41.44C88.8533 40.08 90.48 39.0267 92.32 38.28C94.16 37.5333 96.1333 37.16 98.24 37.16C100.08 37.16 101.773 37.32 103.32 37.64C104.893 37.9333 106.147 38.2133 107.08 38.48L107.88 44.16L106.68 44.4C105.96 42.5067 104.8 41.1467 103.2 40.32C101.627 39.4933 99.8933 39.08 98 39.08C95.7333 39.08 93.76 39.5867 92.08 40.6C90.4 41.6133 89.0933 43 88.16 44.76C87.2533 46.52 86.8 48.5333 86.8 50.8C86.8 52.64 87.12 54.3867 87.76 56.04C88.4 57.6933 89.28 59.1733 90.4 60.48C91.5467 61.7867 92.8533 62.8133 94.32 63.56C95.8133 64.3067 97.4 64.68 99.08 64.68C101.293 64.68 103.107 64.2 104.52 63.24C105.933 62.2533 107.227 60.8267 108.4 58.96L109.6 59.56L106.48 65.48ZM132.779 66.32C130.779 66.32 128.979 65.8533 127.379 64.92C125.805 63.9867 124.552 62.7333 123.619 61.16C122.685 59.5867 122.219 57.8533 122.219 55.96C122.219 54.4933 122.499 53.12 123.059 51.84C123.619 50.56 124.379 49.44 125.339 48.48C126.325 47.4933 127.459 46.72 128.739 46.16C130.045 45.6 131.432 45.32 132.899 45.32C134.872 45.32 136.659 45.7867 138.259 46.72C139.859 47.6533 141.125 48.9067 142.059 50.48C143.019 52.0267 143.499 53.7467 143.499 55.64C143.499 57.1067 143.219 58.48 142.659 59.76C142.099 61.04 141.325 62.1733 140.339 63.16C139.379 64.1467 138.245 64.92 136.939 65.48C135.659 66.04 134.272 66.32 132.779 66.32ZM133.939 64.48C135.165 64.48 136.232 64.1467 137.139 63.48C138.045 62.7867 138.752 61.88 139.259 60.76C139.765 59.64 140.019 58.4133 140.019 57.08C140.019 55.8267 139.792 54.6133 139.339 53.44C138.912 52.24 138.312 51.1733 137.539 50.24C136.792 49.28 135.912 48.5333 134.899 48C133.885 47.44 132.819 47.16 131.699 47.16C130.472 47.16 129.405 47.5067 128.499 48.2C127.592 48.8933 126.885 49.8 126.379 50.92C125.899 52.0133 125.659 53.2133 125.659 54.52C125.659 55.7733 125.872 57 126.299 58.2C126.752 59.3733 127.352 60.44 128.099 61.4C128.872 62.3333 129.752 63.08 130.739 63.64C131.752 64.2 132.819 64.48 133.939 64.48ZM168.909 65.48C168.376 65.64 167.629 65.7733 166.669 65.88C165.709 65.96 164.736 66 163.749 66H155.109V64.92C155.456 64.92 155.936 64.88 156.549 64.8C157.163 64.72 157.736 64.5733 158.269 64.36V47.28C157.736 47.12 157.176 47.04 156.589 47.04C156.003 47.0133 155.549 47.0133 155.229 47.04L155.109 45.96C156.683 45.7467 158.216 45.5867 159.709 45.48C161.229 45.3733 162.736 45.32 164.229 45.32C165.163 45.32 166.096 45.3733 167.029 45.48C167.989 45.56 168.923 45.7467 169.829 46.04C171.323 46.4933 172.629 47.2 173.749 48.16C174.869 49.0933 175.736 50.1867 176.349 51.44C176.989 52.6933 177.309 54.0267 177.309 55.44C177.309 56.9333 176.963 58.3733 176.269 59.76C175.576 61.12 174.589 62.3067 173.309 63.32C172.056 64.3067 170.589 65.0267 168.909 65.48ZM161.509 63.56C162.123 63.8 162.776 63.9867 163.469 64.12C164.189 64.2533 164.936 64.32 165.709 64.32C168.189 64.32 170.136 63.5733 171.549 62.08C172.989 60.56 173.709 58.6 173.709 56.2C173.709 54.2 173.163 52.4667 172.069 51C171.003 49.5067 169.549 48.4 167.709 47.68C165.869 46.96 163.803 46.7467 161.509 47.04V63.56ZM188.938 66V64.92C189.284 64.92 189.764 64.88 190.378 64.8C190.991 64.72 191.564 64.5733 192.098 64.36V47.28C191.564 47.0667 190.991 46.92 190.378 46.84C189.764 46.76 189.284 46.72 188.938 46.72V45.64H203.658L203.818 50.28L202.698 50.36C202.671 49.9867 202.618 49.5467 202.538 49.04C202.458 48.5067 202.311 47.9867 202.098 47.48H195.338V54.84H200.258C200.444 54.3867 200.551 53.9333 200.578 53.48C200.604 53 200.618 52.6267 200.618 52.36H201.738V59.12H200.618C200.618 58.8533 200.604 58.4933 200.578 58.04C200.551 57.56 200.444 57.1067 200.258 56.68H195.338V64.16H202.458C202.778 63.7333 203.071 63.2533 203.338 62.72C203.631 62.16 203.871 61.64 204.058 61.16C204.271 60.68 204.391 60.3733 204.418 60.24L205.538 60.52L204.338 66H188.938Z" fill="#00AFB9"/>
<path d="M241.476 66.56L223.516 42.72V64.16C224.13 64.4267 224.77 64.6 225.436 64.68C226.13 64.76 226.663 64.8 227.036 64.8V66H217.756V64.8C218.13 64.8 218.663 64.76 219.356 64.68C220.05 64.6 220.69 64.4267 221.276 64.16V39.56C220.69 39.2933 220.05 39.12 219.356 39.04C218.663 38.96 218.13 38.92 217.756 38.92V37.72H224.116L241.036 60.12V39.56C240.45 39.2933 239.81 39.12 239.116 39.04C238.423 38.96 237.89 38.92 237.516 38.92V37.72H246.796V38.92C246.423 38.92 245.89 38.96 245.196 39.04C244.53 39.12 243.89 39.2933 243.276 39.56V66.56H241.476ZM262.762 66V64.92C263.108 64.92 263.588 64.88 264.202 64.8C264.815 64.72 265.388 64.5733 265.922 64.36V47.48H260.082C259.868 48.28 259.695 49.0667 259.562 49.84C259.428 50.5867 259.295 51.32 259.162 52.04H258.002V45.64H277.322L276.402 52.16L275.242 52.04C275.268 51.3467 275.268 50.6133 275.242 49.84C275.242 49.0667 275.188 48.28 275.082 47.48H269.162V64.36C269.695 64.5733 270.268 64.72 270.882 64.8C271.495 64.88 271.975 64.92 272.322 64.92V66H262.762ZM289.719 66V64.92C290.065 64.92 290.545 64.88 291.159 64.8C291.772 64.72 292.345 64.5733 292.879 64.36V47.28C292.345 47.12 291.785 47.04 291.199 47.04C290.612 47.0133 290.159 47.0133 289.839 47.04L289.719 45.96C291.292 45.7467 292.745 45.5867 294.079 45.48C295.412 45.3733 296.852 45.32 298.399 45.32C300.372 45.32 302.025 45.72 303.359 46.52C304.719 47.32 305.399 48.5733 305.399 50.28C305.399 51.2667 305.092 52.2933 304.479 53.36C303.865 54.4 302.799 55.2933 301.279 56.04C301.812 56.9467 302.439 57.96 303.159 59.08C303.879 60.1733 304.572 61.1467 305.239 62C305.745 62.64 306.199 63.2 306.599 63.68C307.025 64.16 307.492 64.5867 307.999 64.96C308.505 65.3333 309.159 65.68 309.959 66L309.639 67.08C308.252 67 307.119 66.8133 306.239 66.52C305.385 66.2533 304.665 65.8933 304.079 65.44C303.519 64.96 302.972 64.4267 302.439 63.84C302.065 63.4133 301.625 62.7867 301.119 61.96C300.612 61.1333 300.105 60.2667 299.599 59.36C299.092 58.4533 298.652 57.68 298.279 57.04C297.932 57.0933 297.572 57.1467 297.199 57.2C296.852 57.2533 296.492 57.3067 296.119 57.36V64.36C296.679 64.5733 297.279 64.72 297.919 64.8C298.585 64.88 299.092 64.92 299.439 64.92V66H289.719ZM296.119 56C297.932 55.8933 299.372 55.3733 300.439 54.44C301.505 53.48 302.039 52.3867 302.039 51.16C302.039 49.6133 301.479 48.5067 300.359 47.84C299.265 47.1733 297.852 46.92 296.119 47.08V56ZM332.871 66V64.92C333.218 64.92 333.698 64.88 334.311 64.8C334.924 64.72 335.498 64.5733 336.031 64.36L334.311 59.64H326.831L324.911 64.36C325.444 64.5733 326.018 64.72 326.631 64.8C327.244 64.88 327.724 64.92 328.071 64.92V66H319.871V64.92C320.164 64.92 320.578 64.88 321.111 64.8C321.671 64.72 322.204 64.5867 322.711 64.4L329.751 47L329.311 45.8L332.111 44.8L339.191 64.36C339.671 64.5733 340.178 64.72 340.711 64.8C341.244 64.88 341.658 64.92 341.951 64.92V66H332.871ZM327.551 57.8H333.671L330.791 49.84L327.551 57.8ZM364.863 66V64.92C365.21 64.92 365.69 64.88 366.303 64.8C366.916 64.72 367.49 64.5733 368.023 64.36L366.303 59.64H358.823L356.903 64.36C357.436 64.5733 358.01 64.72 358.623 64.8C359.236 64.88 359.716 64.92 360.063 64.92V66H351.863V64.92C352.156 64.92 352.57 64.88 353.103 64.8C353.663 64.72 354.196 64.5867 354.703 64.4L361.743 47L361.303 45.8L364.103 44.8L371.183 64.36C371.663 64.5733 372.17 64.72 372.703 64.8C373.236 64.88 373.65 64.92 373.943 64.92V66H364.863ZM359.543 57.8H365.663L362.783 49.84L359.543 57.8Z" fill="white"/>
<rect x="42.6953" y="14" width="6" height="6" transform="rotate(47.6585 42.6953 14)" fill="white"/>
</g>
<defs>
<clipPath id="clip0_26_7">
<rect width="400" height="75" fill="white"/>
</clipPath>
</defs>
</svg>